# xmcd
#
# Track frame offsets:
#	150
#	11803
#	25551
#	37326
#	51703
#	63352
#	74760
#	86640
#	99064
#	109654
#	119648
#	134673
#	148402
#	163647
#	174281
#	187316
#	203904
#	215920
#	228195
#	240922
#	253620
#	262829
#	275348
#	285402
#	298913
#
# Disc length: 4170 seconds
#
# Revision: 1
# Processed by: cddbd v1.5.2PL0 Copyright (c) Steve Scherf et al.
# Submitted via: audiograbber 1.83.01
#
DISCID=89104819
DTITLE=Jody Miller - Complete Epic Hits
DYEAR=2012
DGENRE=Oldies
TTITLE0=Look At Mine
TTITLE1=If You Think I Love You Now (I've Just Started)
TTITLE2=He's So Fine
TTITLE3=Baby, I'm Yours
TTITLE4=Be My Baby
TTITLE5=Jody Miller and Johnny Paycheck_Let's All Go Down To The River
TTITLE6=There's A Party Goin' On
TTITLE7=To Know Him Is To Love Him
TTITLE8=Good News
TTITLE9=Darling, You Can Always Come Back Home
TTITLE10=The House Of The Rising Sun
TTITLE11=Reflections
TTITLE12=Natural Woman
TTITLE13=Country Girl
TTITLE14=The Best In Me
TTITLE15=Don't Take It Away
TTITLE16=Will You Love Me Tomorrow
TTITLE17=Ashes Of Love
TTITLE18=When The New Wears Off Of Our Love
TTITLE19=Spread A Little Love Around
TTITLE20=Another Lonely Night
TTITLE21=Soft Lights And Slow Sexy Music
TTITLE22=(I Wanna) Love My Life Away
TTITLE23=Kiss Away
TTITLE24=Lay A Little Lovin' On Me
EXTD=
EXTT0=
EXTT1=
EXTT2=
EXTT3=
EXTT4=
EXTT5=
EXTT6=
EXTT7=
EXTT8=
EXTT9=
EXTT10=
EXTT11=
EXTT12=
EXTT13=
EXTT14=
EXTT15=
EXTT16=
EXTT17=
EXTT18=
EXTT19=
EXTT20=
EXTT21=
EXTT22=
EXTT23=
EXTT24=
PLAYORDER=
